<?xml version="1.0" encoding="UTF-8" standalone="no"?>
<!DOCTYPE svg PUBLIC "-//W3C//DTD SVG 1.1//EN" "http://www.w3.org/Graphics/SVG/1.1/DTD/svg11.dtd">
<svg width="100%" height="100%" viewBox="0 0 12 12" version="1.1" xmlns="http://www.w3.org/2000/svg" xmlns:xlink="http://www.w3.org/1999/xlink" xml:space="preserve" xmlns:serif="http://www.serif.com/" style="fill-rule:evenodd;clip-rule:evenodd;stroke-linejoin:round;stroke-miterlimit:2;">
    <path d="M6,1.5C3.531,1.5 1.5,3.531 1.5,6C1.5,8.469 3.531,10.5 6,10.5C7.786,10.5 9.411,9.437 10.126,7.8L10.326,7.342L11.243,7.742L11.043,8.2C10.169,10.201 8.183,11.5 6,11.5C2.963,11.5 0.5,9.038 0.5,6C0.5,2.963 2.963,0.5 6,0.5C9.038,0.5 11.5,2.963 11.5,6L11.5,7L9.3,5.35L9.9,4.55L10.364,4.898C9.86,2.906 8.054,1.5 6,1.5" style="fill:white;fill-rule:nonzero;"/>
</svg>
