<?xml version="1.0" encoding="UTF-8" standalone="no"?>
<!DOCTYPE svg PUBLIC "-//W3C//DTD SVG 1.1//EN" "http://www.w3.org/Graphics/SVG/1.1/DTD/svg11.dtd">
<svg width="100%" height="100%" viewBox="0 0 12 12" version="1.1" xmlns="http://www.w3.org/2000/svg" xmlns:xlink="http://www.w3.org/1999/xlink" xml:space="preserve" xmlns:serif="http://www.serif.com/" style="fill-rule:evenodd;clip-rule:evenodd;stroke-linejoin:round;stroke-miterlimit:2;">
    <g transform="matrix(1.35261,0,0,1.35261,-2.11568,-2.09408)">
        <path d="M10.436,3.068L10.436,8.794L7.848,7.315L7.848,8.896L1.564,8.896L1.564,2.982L7.848,2.982L7.848,4.621L10.436,3.068ZM7.109,3.721L2.303,3.721L2.303,8.157L7.109,8.157L7.109,3.721ZM5.935,6.54L6.499,6.786C6.187,7.501 5.478,7.966 4.697,7.966C3.612,7.966 2.732,7.086 2.732,6C2.732,4.914 3.612,4.034 4.697,4.034C5.783,4.034 6.663,4.914 6.663,6L6.638,6.516L5.687,5.805L5.867,5.565L6.006,5.669C5.855,5.072 5.314,4.65 4.697,4.65C3.957,4.65 3.347,5.259 3.347,6C3.347,6.741 3.957,7.35 4.697,7.35C5.233,7.35 5.721,7.031 5.935,6.54ZM7.848,5.483L7.848,6.464L9.697,7.52L9.697,4.374L7.848,5.483Z" style="fill:white;fill-rule:nonzero;"/>
    </g>
</svg>
